<svg xmlns="http://www.w3.org/2000/svg" height="48" viewBox="0 -960 960 960" width="48"><path d="M216-570H72q4-17.923 12-35.462Q92-623 104-639l153-206q21-28 54-35.5t64 6.5l28 14q24 13 37.5 35.254Q454-802.492 454-775v65l58-13q34.125-9 65.875 8.615Q609.625-696.769 623-663l63.553 193.071L855-302q22 23 30.5 48.656t8.5 53.702Q894-157 870.5-123.5 847-90 809-77L346.76-518.234Q320-543 286-556.5T216-570ZM565.959-67q-32.914 0-62.436-12Q474-91 451-112L126-407q-24.208-20.181-37.708-46.645Q74.792-480.108 70-510h146q25 0 48.5 9.5T306-474L731-67H565.959Z"/></svg>